<svg xmlns:dc="http://purl.org/dc/elements/1.1/" xmlns:cc="http://creativecommons.org/ns#" xmlns:rdf="http://www.w3.org/1999/02/22-rdf-syntax-ns#" xmlns:svg="http://www.w3.org/2000/svg" xmlns="http://www.w3.org/2000/svg" xmlns:sodipodi="http://sodipodi.sourceforge.net/DTD/sodipodi-0.dtd" xmlns:inkscape="http://www.inkscape.org/namespaces/inkscape" version="1.1" x="0px" y="0px" viewBox="0 0 100 100"><g transform="translate(0,-952.36218)"><path style="color:#000000;enable-background:accumulate;" d="m 15,976.36218 c -0.78597,0 -1.53205,0.1651 -2.21875,0.4375 l 34.8125,29.62502 c 1.52366,1.2979 3.22274,1.2988 4.75,0 L 87.1875,976.76838 c -0.67677,-0.2633 -1.41538,-0.4062 -2.1875,-0.4062 l -70,0 z m -5.9375,5.125 C 9.02182,981.77038 9,982.06738 9,982.36218 l 0,40.00002 c 0,3.3239 2.67606,6 6,6 l 70,0 c 3.32394,0 6,-2.6761 6,-6 l 0,-40.00002 c 0,-0.2948 -0.0218,-0.5918 -0.0625,-0.875 L 56.25,1010.9872 c -3.5958,3.0578 -8.9669,3.0627 -12.5625,0 L 9.0625,981.48718 z" fill="#000000" stroke="none" marker="none" visibility="visible" display="inline" overflow="visible"></path></g></svg>